<?xml version="1.0" encoding="utf-8"?>
<!-- Generator: Adobe Illustrator 19.2.0, SVG Export Plug-In . SVG Version: 6.00 Build 0)  -->
<svg version="1.1" id="Layer_1" xmlns="http://www.w3.org/2000/svg" xmlns:xlink="http://www.w3.org/1999/xlink" x="0px" y="0px"
	 viewBox="0 0 24 9.6" style="enable-background:new 0 0 24 9.6;" xml:space="preserve">
<path d="M0,0v0.7h4.7V0H0z M5.3,0v0.7H12c0,0-0.7-0.7-1.6-0.7H5.3z M13.3,0v0.7h4L17.1,0H13.3z M20.2,0L20,0.7h4V0H20.2z M0,1.3V2
	h4.7V1.3H0z M5.3,1.3V2h7.4c0,0-0.1-0.5-0.2-0.7H5.3z M13.3,1.3V2h4.5l-0.2-0.7H13.3z M19.7,1.3L19.5,2H24V1.3H19.7z M1.3,2.6v0.7h2
	V2.6H1.3z M6.7,2.6v0.7h2V2.6H6.7z M10.7,2.6v0.7h2c0,0,0.1-0.3,0.1-0.7H10.7z M14.6,2.6v0.7h3.6L18,2.6H14.6z M19.3,2.6l-0.2,0.7
	h3.6V2.6H19.3z M1.3,3.8v0.7h2V3.8H1.3z M6.7,3.8v0.7h5.2c0,0,0.4-0.3,0.6-0.7H6.7z M14.6,3.8v0.7h2V4.1l0.1,0.4h3.7l0.1-0.4v0.4h2
	V3.8h-3.8l-0.2,0.6l-0.2-0.6H14.6z M1.3,5.1v0.7h2V5.1H1.3z M6.7,5.1v0.7h5.7c-0.1-0.3-0.6-0.7-0.6-0.7H6.7z M14.6,5.1v0.7h2V5.1
	H14.6z M17,5.1l0.2,0.7H20l0.2-0.7H17z M20.6,5.1v0.7h2V5.1H20.6z M1.3,6.4V7h2V6.4H1.3z M6.7,6.4V7h2V6.4H6.7z M10.7,6.4V7h2.2
	c0-0.3-0.1-0.7-0.1-0.7L10.7,6.4C10.7,6.3,10.7,6.4,10.7,6.4z M14.6,6.4V7h2V6.4H14.6z M17.5,6.4L17.7,7h1.9l0.2-0.7L17.5,6.4
	C17.5,6.3,17.5,6.4,17.5,6.4z M20.6,6.4V7h2V6.4H20.6z M0,7.7v0.7h4.7V7.7H0z M5.3,7.7v0.7h7.2c0.2-0.2,0.2-0.7,0.2-0.7H5.3z
	 M13.3,7.7v0.7h3.3V7.7H13.3z M17.9,7.7l0.2,0.7H19l0.2-0.7H17.9z M20.6,7.7v0.7H24V7.7H20.6z M0,8.9v0.7h4.7V8.9H0z M5.3,8.9v0.7
	h5.1c0.9,0,1.6-0.7,1.6-0.7H5.3z M13.3,8.9v0.7h3.3V8.9H13.3z M18.4,8.9l0.2,0.7l0,0l0.2-0.7H18.4z M20.6,8.9v0.7H24V8.9H20.6z"/>
</svg>
